<svg xmlns="http://www.w3.org/2000/svg" width="32" height="23.559" viewBox="0 0 32 23.559">
  <defs>
    <style>
      .cls-1 {
        fill: #ff951f;
      }
    </style>
  </defs>
  <g id="Web" transform="translate(0 -0.167)">
    <g id="Dashboard" transform="translate(-250 -20)">
      <g id="Group-13">
        <g id="Group-12" transform="translate(250 20)">
          <g id="logo">
            <path id="Path" class="cls-1" d="M14.844,3.7c0-1.588-.711-3.529-4-3.529a4.542,4.542,0,0,0-3.022.971A6.77,6.77,0,0,1,3.467,2.55,9.015,9.015,0,0,1,0,1.932C.978,4.315,3.378,7.315,9.511,7.315,12.711,7.226,14.844,5.374,14.844,3.7Z"/>
            <path id="Path-2" data-name="Path" class="cls-1" d="M21.956,16.668A9.232,9.232,0,0,1,16,14.9a9.232,9.232,0,0,1-5.956,1.765c-4.889,0-6.578-6.441-7.022-8.382-.356-.176-.622-.265-.978-.441L2.489,11.9c.8,6.882,9.333,11.471,13.511,11.824,3.911-.441,12.444-4.941,13.333-11.824l.444-4.147a9.717,9.717,0,0,1-.978.529C28.533,10.315,26.844,16.668,21.956,16.668Z"/>
            <path id="Path-3" data-name="Path" class="cls-1" d="M24.267,1.138A4.725,4.725,0,0,0,21.244.168c-3.289,0-4,1.941-4,3.529,0,1.676,2.133,3.529,5.244,3.529,6.133,0,8.533-3,9.511-5.382a8.865,8.865,0,0,1-3.378.618A6.333,6.333,0,0,1,24.267,1.138Z"/>
          </g>
        </g>
      </g>
    </g>
  </g>
</svg>
